<svg width="100" height="39" viewBox="0 0 100 39" fill="none" xmlns="http://www.w3.org/2000/svg">
<path d="M1.29286 12.4051C2.13793 12.549 2.9397 11.9811 3.08464 11.1365L3.08479 11.1356L3.08626 11.1276C3.08825 11.1168 3.09184 11.0976 3.09717 11.0707C3.10784 11.0168 3.12542 10.932 3.15095 10.8208C3.2021 10.598 3.28469 10.2712 3.4068 9.87545C3.65277 9.07835 4.05009 8.03119 4.65461 6.99808C5.86268 4.93352 7.76603 3.10678 10.874 3.10678C14.109 3.10678 16.6101 5.03178 19.614 7.42792L19.7741 7.5557C21.3448 8.80938 23.0712 10.1873 25.062 11.1568C26.6247 11.9178 28.3503 12.4271 30.2913 12.4271C32.2239 12.4271 33.9428 11.9223 35.5 11.1668C37.4995 10.1968 39.2324 8.81372 40.8086 7.5557L40.9687 7.42792C43.9726 5.03178 46.4737 3.10678 49.7087 3.10678C52.9437 3.10678 55.4448 5.03178 58.4487 7.42792L58.6088 7.55569C60.1999 8.82561 61.9507 10.223 63.9741 11.1942C65.5164 11.9344 67.217 12.4271 69.126 12.4271C71.0266 12.4271 72.7206 11.9388 74.2573 11.2041C76.2895 10.2325 78.0468 8.82993 79.6433 7.55569L79.8034 7.42792C82.8073 5.03178 85.3084 3.10678 88.5434 3.10678C91.6753 3.10678 93.733 4.96121 95.0909 7.05798C95.7667 8.10145 96.2328 9.15688 96.5301 9.95784C96.6777 10.3558 96.7813 10.6845 96.8468 10.9087C96.8795 11.0207 96.9026 11.1061 96.9168 11.1606C96.9239 11.1878 96.9287 11.2072 96.9314 11.2183L96.9333 11.2259L96.9337 11.2276L96.9339 11.2283L96.934 11.2288C97.1298 12.0627 97.9639 12.5809 98.7985 12.3867C99.634 12.1921 100.154 11.3571 99.9592 10.5215L98.4463 10.8737C99.9592 10.5215 99.9591 10.5209 99.9589 10.5202L99.9585 10.5188L99.9577 10.5151L99.9554 10.5053L99.9482 10.4757C99.9422 10.4515 99.9339 10.4186 99.9232 10.3775C99.9019 10.2955 99.8708 10.1806 99.829 10.0377C99.7457 9.75229 99.6193 9.3528 99.4428 8.877C99.0915 7.9304 98.5319 6.65575 97.6986 5.36913C96.0384 2.80574 93.1446 0 88.5434 0C84.1296 0 80.8299 2.6336 78.0262 4.87142L77.866 4.99919C74.8622 7.39533 72.361 9.32033 69.126 9.32033C65.8911 9.32033 63.3899 7.39533 60.386 4.99919L60.2259 4.87142C57.4222 2.6336 54.1225 0 49.7087 0C45.2949 0 41.9952 2.6336 39.1915 4.87141L39.0313 4.99919C36.0275 7.39533 33.5263 9.32033 30.2913 9.32033C27.0563 9.32033 24.5552 7.39533 21.5513 4.99919L21.3912 4.87141C18.5874 2.6336 15.2878 0 10.874 0C6.24879 0 3.49197 2.83342 1.97316 5.42903C1.21424 6.72601 0.731435 8.00893 0.438144 8.95939C0.290621 9.43746 0.188788 9.83881 0.122933 10.1257C0.0899643 10.2693 0.0658898 10.3848 0.0495307 10.4674C0.0413479 10.5087 0.0350853 10.5419 0.030597 10.5664L0.0251734 10.5964L0.0234231 10.6064L0.0227823 10.6101L0.0225196 10.6116C0.0224042 10.6123 0.0222952 10.6129 1.55364 10.8737L0.0222951 10.6129C-0.12173 11.4587 0.44712 12.261 1.29286 12.4051Z" fill="#F2A15A"/>
<path d="M3.08464 24.3403C2.9397 25.1849 2.13793 25.7528 1.29286 25.6089C0.44712 25.4648 -0.12173 24.6625 0.0222951 23.8167L1.55364 24.0775C0.0222952 23.8167 0.0224042 23.8161 0.0225196 23.8154L0.0227823 23.8139L0.0234231 23.8102L0.0251734 23.8002L0.030597 23.7702C0.0350853 23.7457 0.0413479 23.7125 0.0495307 23.6712C0.0658898 23.5886 0.0899643 23.4731 0.122933 23.3295C0.188788 23.0426 0.290621 22.6413 0.438144 22.1632C0.731435 21.2127 1.21424 19.9298 1.97316 18.6328C3.49197 16.0372 6.24879 13.2038 10.874 13.2038C15.2878 13.2038 18.5874 15.8374 21.3912 18.0752L21.5513 18.203C24.5552 20.5991 27.0563 22.5241 30.2913 22.5241C33.5263 22.5241 36.0275 20.5991 39.0313 18.203L39.1915 18.0752C41.9952 15.8374 45.2949 13.2038 49.7087 13.2038C54.1225 13.2038 57.4222 15.8374 60.2259 18.0752L60.386 18.203C63.3899 20.5991 65.8911 22.5241 69.126 22.5241C72.361 22.5241 74.8622 20.5991 77.866 18.203L78.0262 18.0752C80.8299 15.8374 84.1296 13.2038 88.5434 13.2038C93.1446 13.2038 96.0384 16.0095 97.6986 18.5729C98.5319 19.8596 99.0915 21.1342 99.4428 22.0808C99.6193 22.5566 99.7457 22.9561 99.829 23.2416C99.8708 23.3844 99.9019 23.4993 99.9232 23.5813C99.9339 23.6224 99.9422 23.6553 99.9482 23.6795L99.9554 23.7091L99.9577 23.7189L99.9585 23.7226L99.9589 23.7241C99.9591 23.7247 99.9592 23.7253 98.4463 24.0775L99.9592 23.7253C100.154 24.5609 99.634 25.3959 98.7985 25.5905C97.9639 25.7848 97.1298 25.2665 96.934 24.4326L96.9339 24.4321L96.9337 24.4314L96.9333 24.4297L96.9314 24.4221C96.9287 24.411 96.9239 24.3916 96.9168 24.3644C96.9026 24.3099 96.8795 24.2245 96.8468 24.1125C96.7813 23.8883 96.6777 23.5596 96.5301 23.1616C96.2328 22.3607 95.7667 21.3053 95.0909 20.2618C93.733 18.165 91.6753 16.3106 88.5434 16.3106C85.3084 16.3106 82.8073 18.2356 79.8034 20.6317L79.6433 20.7595C78.0468 22.0337 76.2895 23.4363 74.2573 24.4079C72.7206 25.1426 71.0266 25.6309 69.126 25.6309C67.217 25.6309 65.5164 25.1382 63.9741 24.398C61.9507 23.4268 60.1999 22.0294 58.6088 20.7595L58.4487 20.6317C55.4448 18.2356 52.9437 16.3106 49.7087 16.3106C46.4737 16.3106 43.9726 18.2356 40.9687 20.6317L40.8086 20.7595C39.2324 22.0175 37.4995 23.4006 35.5 24.3706C33.9428 25.1261 32.2239 25.6309 30.2913 25.6309C28.3503 25.6309 26.6247 25.1216 25.062 24.3606C23.0712 23.3911 21.3448 22.0132 19.7741 20.7595L19.614 20.6317C16.6101 18.2356 14.109 16.3106 10.874 16.3106C7.76603 16.3106 5.86268 18.1373 4.65461 20.2019C4.05009 21.235 3.65277 22.2822 3.4068 23.0793C3.28469 23.475 3.2021 23.8018 3.15095 24.0246C3.12542 24.1358 3.10784 24.2206 3.09717 24.2745C3.09184 24.3014 3.08825 24.3206 3.08626 24.3314L3.08479 24.3394L3.08464 24.3403Z" fill="#F2A15A"/>
<path d="M3.08479 37.5432L3.08472 37.5436C2.94001 38.3885 2.13809 38.9566 1.29286 38.8127C0.44712 38.6686 -0.12173 37.8663 0.0222951 37.0205L1.55364 37.2813C0.0222952 37.0205 0.0224042 37.0199 0.0225196 37.0192L0.0227823 37.0177L0.0234231 37.014L0.0251734 37.004L0.030597 36.974C0.0350853 36.9495 0.0413479 36.9164 0.0495307 36.875C0.0658898 36.7924 0.0899643 36.6769 0.122933 36.5333C0.188788 36.2464 0.290621 35.8451 0.438144 35.367C0.731435 34.4165 1.21424 33.1336 1.97316 31.8366C3.49197 29.241 6.24879 26.4076 10.874 26.4076C15.2878 26.4076 18.5874 29.0412 21.3912 31.279L21.5513 31.4068C24.5552 33.8029 27.0563 35.7279 30.2913 35.7279C33.5263 35.7279 36.0275 33.8029 39.0313 31.4068L39.1915 31.279C41.9952 29.0412 45.2949 26.4076 49.7087 26.4076C54.1225 26.4076 57.4222 29.0412 60.2259 31.279L60.386 31.4068C63.3899 33.8029 65.8911 35.7279 69.126 35.7279C72.361 35.7279 74.8622 33.8029 77.866 31.4068L78.0262 31.279C80.8299 29.0412 84.1296 26.4076 88.5434 26.4076C93.1446 26.4076 96.0384 29.2133 97.6986 31.7767C98.5319 33.0634 99.0915 34.338 99.4428 35.2846C99.6193 35.7604 99.7457 36.1599 99.829 36.4454C99.8708 36.5883 99.9019 36.7031 99.9232 36.7851C99.9339 36.8262 99.9422 36.8591 99.9482 36.8833L99.9554 36.9129L99.9577 36.9227L99.9585 36.9264L99.9589 36.9279C99.9591 36.9285 99.9592 36.9291 98.4463 37.2813L99.9592 36.9291C100.154 37.7647 99.634 38.5997 98.7985 38.7943C97.9639 38.9886 97.1298 38.4703 96.934 37.6364L96.9339 37.6359L96.9337 37.6352L96.9333 37.6335L96.9314 37.6259C96.9302 37.6209 96.9285 37.6142 96.9264 37.6058C96.9239 37.5957 96.9206 37.5831 96.9168 37.5682C96.9026 37.5137 96.8795 37.4283 96.8468 37.3163C96.7813 37.0921 96.6777 36.7634 96.5301 36.3654C96.2328 35.5645 95.7667 34.5091 95.0909 33.4656C93.733 31.3688 91.6753 29.5144 88.5434 29.5144C85.3084 29.5144 82.8073 31.4394 79.8034 33.8355L79.6433 33.9633C78.0468 35.2375 76.2895 36.6401 74.2573 37.6117C72.7206 38.3464 71.0266 38.8347 69.126 38.8347C67.217 38.8347 65.5164 38.342 63.9741 37.6018C61.9507 36.6306 60.1999 35.2332 58.6088 33.9633L58.4487 33.8355C55.4448 31.4394 52.9437 29.5144 49.7087 29.5144C46.4737 29.5144 43.9726 31.4394 40.9687 33.8355L40.8086 33.9633C39.2324 35.2213 37.4995 36.6044 35.5 37.5744C33.9428 38.3299 32.2239 38.8347 30.2913 38.8347C28.3503 38.8347 26.6247 38.3254 25.062 37.5644C23.0712 36.5949 21.3449 35.217 19.7741 33.9633L19.614 33.8355C16.6101 31.4394 14.109 29.5144 10.874 29.5144C7.76603 29.5144 5.86268 31.3411 4.65461 33.4057C4.05009 34.4388 3.65277 35.486 3.4068 36.2831C3.28469 36.6788 3.2021 37.0056 3.15095 37.2284C3.12542 37.3396 3.10784 37.4244 3.09717 37.4783C3.09184 37.5052 3.08825 37.5244 3.08626 37.5352L3.08479 37.5432Z" fill="#F2A15A"/>
</svg>
