<svg width="93" height="80" viewBox="0 0 93 80" fill="none" xmlns="http://www.w3.org/2000/svg">
<g opacity="0.5">
<path d="M6.15638 0H0V6.15385H6.15638V0Z" fill="#FFB850"/>
<path d="M18.4691 0H12.3128V6.15385H18.4691V0Z" fill="#FFB850"/>
<path d="M24.6255 0H30.7819V6.15385H24.6255V0Z" fill="#FFB850"/>
<path d="M43.0947 0H36.9383V6.15385H43.0947V0Z" fill="#FFB850"/>
<path d="M49.251 0H55.4074V6.15385H49.251V0Z" fill="#FFB850"/>
<path d="M67.7202 0H61.5638V6.15385H67.7202V0Z" fill="#FFB850"/>
<path d="M73.8765 0H80.0329V6.15385H73.8765V0Z" fill="#FFB850"/>
<path d="M92.3457 0H86.1893V6.15385H92.3457V0Z" fill="#FFB850"/>
<path d="M0 12.3077H6.15638V18.4615H0V12.3077Z" fill="#FFB850"/>
<path d="M18.4691 12.3077H12.3128V18.4615H18.4691V12.3077Z" fill="#FFB850"/>
<path d="M24.6255 12.3077H30.7819V18.4615H24.6255V12.3077Z" fill="#FFB850"/>
<path d="M43.0947 12.3077H36.9383V18.4615H43.0947V12.3077Z" fill="#FFB850"/>
<path d="M49.251 12.3077H55.4074V18.4615H49.251V12.3077Z" fill="#FFB850"/>
<path d="M67.7202 12.3077H61.5638V18.4615H67.7202V12.3077Z" fill="#FFB850"/>
<path d="M73.8765 12.3077H80.0329V18.4615H73.8765V12.3077Z" fill="#FFB850"/>
<path d="M92.3457 12.3077H86.1893V18.4615H92.3457V12.3077Z" fill="#FFB850"/>
<path d="M0 24.6154H6.15638V30.7692H0V24.6154Z" fill="#FFB850"/>
<path d="M18.4691 24.6154H12.3128V30.7692H18.4691V24.6154Z" fill="#FFB850"/>
<path d="M24.6255 24.6154H30.7819V30.7692H24.6255V24.6154Z" fill="#FFB850"/>
<path d="M43.0947 24.6154H36.9383V30.7692H43.0947V24.6154Z" fill="#FFB850"/>
<path d="M49.251 24.6154H55.4074V30.7692H49.251V24.6154Z" fill="#FFB850"/>
<path d="M67.7202 24.6154H61.5638V30.7692H67.7202V24.6154Z" fill="#FFB850"/>
<path d="M73.8765 24.6154H80.0329V30.7692H73.8765V24.6154Z" fill="#FFB850"/>
<path d="M92.3457 24.6154H86.1893V30.7692H92.3457V24.6154Z" fill="#FFB850"/>
<path d="M0 36.9231H6.15638V43.0769H0V36.9231Z" fill="#FFB850"/>
<path d="M18.4691 36.9231H12.3128V43.0769H18.4691V36.9231Z" fill="#FFB850"/>
<path d="M24.6255 36.9231H30.7819V43.0769H24.6255V36.9231Z" fill="#FFB850"/>
<path d="M43.0947 36.9231H36.9383V43.0769H43.0947V36.9231Z" fill="#FFB850"/>
<path d="M49.251 36.9231H55.4074V43.0769H49.251V36.9231Z" fill="#FFB850"/>
<path d="M67.7202 36.9231H61.5638V43.0769H67.7202V36.9231Z" fill="#FFB850"/>
<path d="M73.8765 36.9231H80.0329V43.0769H73.8765V36.9231Z" fill="#FFB850"/>
<path d="M92.3457 36.9231H86.1893V43.0769H92.3457V36.9231Z" fill="#FFB850"/>
<path d="M0 49.2308H6.15638V55.3846H0V49.2308Z" fill="#FFB850"/>
<path d="M18.4691 49.2308H12.3128V55.3846H18.4691V49.2308Z" fill="#FFB850"/>
<path d="M24.6255 49.2308H30.7819V55.3846H24.6255V49.2308Z" fill="#FFB850"/>
<path d="M43.0947 49.2308H36.9383V55.3846H43.0947V49.2308Z" fill="#FFB850"/>
<path d="M49.251 49.2308H55.4074V55.3846H49.251V49.2308Z" fill="#FFB850"/>
<path d="M67.7202 49.2308H61.5638V55.3846H67.7202V49.2308Z" fill="#FFB850"/>
<path d="M73.8765 49.2308H80.0329V55.3846H73.8765V49.2308Z" fill="#FFB850"/>
<path d="M92.3457 49.2308H86.1893V55.3846H92.3457V49.2308Z" fill="#FFB850"/>
<path d="M0 61.5385H6.15638V67.6923H0V61.5385Z" fill="#FFB850"/>
<path d="M18.4691 61.5385H12.3128V67.6923H18.4691V61.5385Z" fill="#FFB850"/>
<path d="M24.6255 61.5385H30.7819V67.6923H24.6255V61.5385Z" fill="#FFB850"/>
<path d="M43.0947 61.5385H36.9383V67.6923H43.0947V61.5385Z" fill="#FFB850"/>
<path d="M49.251 61.5385H55.4074V67.6923H49.251V61.5385Z" fill="#FFB850"/>
<path d="M67.7202 61.5385H61.5638V67.6923H67.7202V61.5385Z" fill="#FFB850"/>
<path d="M73.8765 61.5385H80.0329V67.6923H73.8765V61.5385Z" fill="#FFB850"/>
<path d="M92.3457 61.5385H86.1893V67.6923H92.3457V61.5385Z" fill="#FFB850"/>
<path d="M0 73.8462H6.15638V80H0V73.8462Z" fill="#FFB850"/>
<path d="M18.4691 73.8462H12.3128V80H18.4691V73.8462Z" fill="#FFB850"/>
<path d="M24.6255 73.8462H30.7819V80H24.6255V73.8462Z" fill="#FFB850"/>
<path d="M43.0947 73.8462H36.9383V80H43.0947V73.8462Z" fill="#FFB850"/>
<path d="M49.251 73.8462H55.4074V80H49.251V73.8462Z" fill="#FFB850"/>
<path d="M67.7202 73.8462H61.5638V80H67.7202V73.8462Z" fill="#FFB850"/>
<path d="M73.8765 73.8462H80.0329V80H73.8765V73.8462Z" fill="#FFB850"/>
<path d="M92.3457 73.8462H86.1893V80H92.3457V73.8462Z" fill="#FFB850"/>
</g>
</svg>
