<svg width="50" height="50" viewBox="0 0 50 50" fill="none" xmlns="http://www.w3.org/2000/svg">
<path d="M25.0001 4.44242C31.6753 4.44242 32.466 4.46757 35.1021 4.58619C37.5396 4.6958 38.8634 5.09746 39.7443 5.43511C40.9112 5.88238 41.744 6.41665 42.6188 7.27937C43.4937 8.1422 44.0354 8.96352 44.4889 10.1144C44.8313 10.9832 45.2386 12.2887 45.3497 14.6925C45.47 17.2924 45.4955 18.0722 45.4955 24.6554C45.4955 31.2387 45.47 32.0186 45.3497 34.6184C45.2386 37.0223 44.8313 38.3277 44.4889 39.1965C44.0354 40.3474 43.4937 41.1687 42.6189 42.0314C41.744 42.8943 40.9112 43.4285 39.7443 43.8758C38.8634 44.2135 37.5396 44.6151 35.1021 44.7247C32.4664 44.8433 31.6758 44.8685 25.0001 44.8685C18.3242 44.8685 17.5337 44.8433 14.8979 44.7247C12.4604 44.6151 11.1366 44.2135 10.2557 43.8758C9.08878 43.4285 8.25598 42.8943 7.3812 42.0314C6.50642 41.1687 5.96458 40.3474 5.51106 39.1965C5.16869 38.3277 4.76142 37.0223 4.65028 34.6184C4.53 32.0186 4.5045 31.2387 4.5045 24.6554C4.5045 18.0722 4.53 17.2924 4.65028 14.6925C4.76142 12.2887 5.16869 10.9832 5.51106 10.1144C5.96458 8.96352 6.50632 8.1422 7.3812 7.27947C8.25598 6.41665 9.08878 5.88238 10.2557 5.43511C11.1366 5.09746 12.4604 4.6958 14.8979 4.58619C17.534 4.46757 18.3247 4.44242 25.0001 4.44242ZM25.0001 0C18.2104 0 17.359 0.0283823 14.6925 0.148371C12.0316 0.268066 10.2142 0.684894 8.62405 1.29433C6.98008 1.92442 5.58589 2.76747 4.19597 4.13814C2.80614 5.50891 1.95131 6.88388 1.31252 8.5052C0.694465 10.0735 0.271812 11.8658 0.150444 14.49C0.0287789 17.1198 0 17.9594 0 24.6554C0 31.3515 0.0287789 32.1911 0.150444 34.8209C0.271812 37.4452 0.694465 39.2374 1.31252 40.8057C1.95131 42.427 2.80614 43.802 4.19597 45.1728C5.58589 46.5434 6.98008 47.3865 8.62405 48.0165C10.2142 48.626 12.0316 49.0428 14.6925 49.1625C17.359 49.2825 18.2104 49.3109 25.0001 49.3109C31.7896 49.3109 32.641 49.2825 35.3075 49.1625C37.9684 49.0428 39.7858 48.626 41.3759 48.0165C43.0199 47.3865 44.4141 46.5434 45.804 45.1728C47.1939 43.802 48.0487 42.427 48.6876 40.8057C49.3055 39.2374 49.7282 37.4452 49.8496 34.8209C49.9712 32.1911 50 31.3515 50 24.6554C50 17.9594 49.9712 17.1198 49.8496 14.49C49.7282 11.8658 49.3055 10.0735 48.6876 8.5052C48.0487 6.88388 47.1939 5.50891 45.804 4.13814C44.4141 2.76747 43.0199 1.92442 41.3759 1.29433C39.7858 0.684894 37.9684 0.268066 35.3075 0.148371C32.641 0.0283823 31.7896 0 25.0001 0Z" fill="#F2A15A"/>
<path d="M25.0117 12.0068C17.9215 12.0068 12.1738 17.6752 12.1738 24.6676C12.1738 31.6601 17.9215 37.3285 25.0117 37.3285C32.1018 37.3285 37.8495 31.6601 37.8495 24.6676C37.8495 17.6752 32.1018 12.0068 25.0117 12.0068ZM25.0117 32.8861C20.4093 32.8861 16.6783 29.2066 16.6783 24.6676C16.6783 20.1287 20.4093 16.4492 25.0117 16.4492C29.6141 16.4492 33.345 20.1287 33.345 24.6676C33.345 29.2066 29.6141 32.8861 25.0117 32.8861Z" fill="#F2A15A"/>
<path d="M41.3555 11.4985C41.3555 13.1322 40.0123 14.4568 38.3555 14.4568C36.6987 14.4568 35.3555 13.1322 35.3555 11.4985C35.3555 9.86458 36.6987 8.54004 38.3555 8.54004C40.0123 8.54004 41.3555 9.86458 41.3555 11.4985Z" fill="#F2A15A"/>
</svg>
