<svg width="20" height="20" viewBox="0 0 20 20" fill="none" xmlns="http://www.w3.org/2000/svg">
<path fill-rule="evenodd" clip-rule="evenodd" d="M4.3407 2.46854C4.3407 3.58484 3.47885 4.48823 2.13106 4.48823C0.835781 4.48823 -0.0260703 3.58484 0.000602052 2.46854C-0.0260703 1.29799 0.83576 0.420898 2.15688 0.420898C3.47883 0.420898 4.31486 1.29799 4.3407 2.46854ZM0.108963 19.0864V6.08376H4.20649V19.0856H0.108963V19.0864Z" fill="#F2A15A"/>
<path fill-rule="evenodd" clip-rule="evenodd" d="M7.49068 10.2336C7.49068 8.61181 7.4365 7.22918 7.38232 6.08576H10.9414L11.1306 7.86707H11.2114C11.7507 7.04259 13.0985 5.79395 15.2823 5.79395C17.9778 5.79395 19.9999 7.54895 19.9999 11.3762V19.0884H15.9024V11.8826C15.9024 10.2065 15.3098 9.06391 13.827 9.06391C12.6942 9.06391 12.0208 9.83496 11.7515 10.5789C11.6432 10.8452 11.5898 11.2168 11.5898 11.59V19.0884H7.49234V10.2336H7.49068Z" fill="#F2A15A"/>
</svg>
