<svg width="50" height="50" viewBox="0 0 50 50" fill="none" xmlns="http://www.w3.org/2000/svg">
<circle cx="25" cy="25" r="25" fill="#8E0332" fill-opacity="0.1"/>
<g clip-path="url(#clip0_173_801)">
<path d="M27.5 15V21.25C27.5 22.65 27.9625 23.95 28.75 25H21.25C22.0625 23.925 22.5 22.625 22.5 21.25V15H27.5ZM31.25 12.5H18.75C18.0625 12.5 17.5 13.0625 17.5 13.75C17.5 14.4375 18.0625 15 18.75 15H20V21.25C20 23.325 18.325 25 16.25 25V27.5H23.7125V36.25L24.9625 37.5L26.2125 36.25V27.5H33.75V25C31.675 25 30 23.325 30 21.25V15H31.25C31.9375 15 32.5 14.4375 32.5 13.75C32.5 13.0625 31.9375 12.5 31.25 12.5Z" fill="#DE2330"/>
</g>
<defs>
<clipPath id="clip0_173_801">
<rect width="30" height="30" fill="white" transform="translate(10 10)"/>
</clipPath>
</defs>
</svg>
