<svg xmlns="http://www.w3.org/2000/svg" width="923.89516" height="413.9793" viewBox="0 0 923.89516 413.9793"><path d="M384.66536,149.04122h-.3545a7.07038,7.07038,0,0,0-2.24023-5.24805,7.35438,7.35438,0,0,0-5.30664-2.18164h-1.415l-.11816-1.17968h9.43457Zm0,65.33008v8.6084h-9.43457V221.801h1.5332a7.15707,7.15707,0,0,0,5.24805-2.18164,7.59657,7.59657,0,0,0,2.29882-5.24805Zm7.31054-73.93945V222.9797h-7.665V140.43185Zm31.83985,0v3.65625H391.62239v-3.65625Zm-5.07031,40.09472v3.53809h-27.123v-3.53809Zm-27.123,33.84473h.35351a7.585,7.585,0,0,0,2.29981,5.24805,7.14924,7.14924,0,0,0,5.248,2.18164h1.5332v1.17871h-9.43457Zm32.19336-76.06152v3.41992L409.429,140.43185a45.14514,45.14514,0,0,0,5.48437-.35352q2.88574-.353,5.36524-.8252A17.71519,17.71519,0,0,0,423.81575,138.30978Zm-5.07031,34.66992v7.7832h-6.83985v-.23633a5.78763,5.78763,0,0,0,4.00977-1.82715,5.6566,5.6566,0,0,0,1.65039-4.06933V172.9797Zm0,10.84863v7.7832h-1.17969V189.843a5.66246,5.66246,0,0,0-1.65039-4.06836,5.37208,5.37208,0,0,0-4.00977-1.71v-.23633Zm5.07031-40.09375V151.635h-1.17969v-1.76855a5.83753,5.83753,0,0,0-5.77734-5.77832v-.35352Z" fill="#b2182a"/><path d="M443.62532,214.3713a5.99615,5.99615,0,0,0-.23633,4.00976,4.873,4.873,0,0,0,1.94629,2.53516,5.01111,5.01111,0,0,0,2.77148.88477h1.06055v1.17871H425.46419V221.801h1.06152a10.9899,10.9899,0,0,0,5.60156-1.71,12.58622,12.58622,0,0,0,4.77637-5.71973Zm25.35351-75.58985,1.06153,8.25489-29.59961,75.58984h-7.0752L463.554,150.92794q1.29639-2.94726,2.18164-5.07129.88476-2.12256,1.5332-4.12695a10.88378,10.88378,0,0,0,.64844-2.94825Zm16.62793,52.00489v3.53808H448.69563v-3.53808Zm-16.62793-52.00489,34.90625,83.49122H493.86165l-27.24121-72.28809ZM490.9134,214.3713h9.66993a11.81114,11.81114,0,0,0,4.71679,5.71973,11.28485,11.28485,0,0,0,5.66016,1.71h.94336v1.17871h-26.5332V221.801H486.432a5.312,5.312,0,0,0,4.00976-1.94629Q492.2098,217.90938,490.9134,214.3713Z" fill="#b2182a"/><path d="M540.2054,138.78145a38.299,38.299,0,0,1,4.06836.23536q2.17968.23877,4.24511.64843,2.061.416,3.77344.82618a13.18876,13.18876,0,0,1,2.65332.88378v13.08985h-1.06152a10.96849,10.96849,0,0,0-3.8916-8.90332,14.254,14.254,0,0,0-9.4336-3.24317,14.07689,14.07689,0,0,0-10.49512,4.06934,13.1,13.1,0,0,0-4.00976,9.49219,16.92293,16.92293,0,0,0,1.00195,5.248,13.80945,13.80945,0,0,0,3.71485,5.60157l23.23144,21.46191a16.49721,16.49721,0,0,1,4.7168,7.07617,24.49639,24.49639,0,0,1,1.17969,7.31153q0,9.78954-5.95508,15.91992-5.95606,6.13183-16.09668,6.13183a44.66889,44.66889,0,0,1-6.66309-.58984,32.61978,32.61978,0,0,1-7.42969-2.06348,17.84546,17.84546,0,0,1-5.95507-3.833,26.27242,26.27242,0,0,1-.35352-4.7168,39.8259,39.8259,0,0,1,.47168-5.95508,37.092,37.092,0,0,1,1.29688-5.71973h1.06152a19.65542,19.65542,0,0,0,1.5332,10.49512,14.84954,14.84954,0,0,0,6.19043,6.78125,16.86205,16.86205,0,0,0,9.25781,2.06348,17.60427,17.60427,0,0,0,11.14356-4.54q4.65673-4.18506,4.6582-11.26172a15.68724,15.68724,0,0,0-1.17969-6.19141,13.375,13.375,0,0,0-3.41894-4.77539L525.8177,173.33321a18.42362,18.42362,0,0,1-4.95215-7.252,21.93816,21.93816,0,0,1-1.415-7.37109,20.65505,20.65505,0,0,1,2.3584-9.55176,18.84447,18.84447,0,0,1,7.0166-7.48828A21.19663,21.19663,0,0,1,540.2054,138.78145Zm14.74023,1.17872v2.47656h-8.96191v-2.47656Z" fill="#b2182a"/><path d="M590.44075,140.43185V222.9797a25.66138,25.66138,0,0,1-1.65137,9.25781,23.09146,23.09146,0,0,1-4.59863,7.48828,22.02535,22.02535,0,0,1-6.83985,5.01172,19.46128,19.46128,0,0,1-8.373,1.82715v-1.06055a17.43028,17.43028,0,0,0,7.0166-4.89453,26.45951,26.45951,0,0,0,4.95312-8.19531,26.88685,26.88685,0,0,0,1.82813-9.78809V140.43185Zm-7.31153,8.60937h-.35351a7.60731,7.60731,0,0,0-2.29981-5.24805,7.15923,7.15923,0,0,0-5.248-2.18164h-1.53321v-1.17968h9.43457Zm6.957,0v-8.60937h9.43457v1.17968h-1.53321a7.15453,7.15453,0,0,0-5.248,2.18164,7.58527,7.58527,0,0,0-2.29883,5.24805Z" fill="#b2182a"/><path d="M619.21321,140.43185V147.508h-.35352a5.46645,5.46645,0,0,0-1.82812-4.24512,6.36812,6.36812,0,0,0-4.42188-1.65137H610.723v-1.17968Zm7.31152,0v51.88769a34.10184,34.10184,0,0,0,3.125,14.97656,23.33,23.33,0,0,0,21.875,13.67871,27.0053,27.0053,0,0,0,13.79785-3.41992,23.99963,23.99963,0,0,0,9.19727-9.49219,29.31306,29.31306,0,0,0,3.30273-14.21V140.43185h5.542v53.42089a31.8385,31.8385,0,0,1-3.9502,16.09668,27.81088,27.81088,0,0,1-11.14453,10.79,34.65189,34.65189,0,0,1-16.74512,3.8916,36.69191,36.69191,0,0,1-17.1582-3.833,27.90869,27.90869,0,0,1-11.43848-10.73047,31.10449,31.10449,0,0,1-4.06836-16.09766V140.43185Zm8.13672,0v1.17968h-1.88672a6.36131,6.36131,0,0,0-4.42187,1.65137,5.46,5.46,0,0,0-1.82813,4.24512h-.23535v-7.07617Zm43.51465,0V147.508h-.35352a5.46645,5.46645,0,0,0-1.82812-4.24512,6.36982,6.36982,0,0,0-4.42188-1.65137h-1.88672v-1.17968Zm13.32519,0v1.17968h-1.88671a6.36133,6.36133,0,0,0-4.42188,1.65137,5.46,5.46,0,0,0-1.82812,4.24512h-.23536v-7.07617Z" fill="#b2182a"/><path d="M726.99641,138.78145a38.2988,38.2988,0,0,1,4.06836.23536q2.1797.23877,4.24512.64843,2.061.416,3.77344.82618a13.189,13.189,0,0,1,2.65332.88378v13.08985h-1.06153a10.96846,10.96846,0,0,0-3.8916-8.90332,14.254,14.254,0,0,0-9.43359-3.24317,14.07689,14.07689,0,0,0-10.49512,4.06934,13.1,13.1,0,0,0-4.00977,9.49219,16.92268,16.92268,0,0,0,1.002,5.248,13.80942,13.80942,0,0,0,3.71484,5.60157l23.23145,21.46191a16.49719,16.49719,0,0,1,4.71679,7.07617,24.49607,24.49607,0,0,1,1.17969,7.31153q0,9.78954-5.95508,15.91992-5.95605,6.13183-16.09668,6.13183a44.66888,44.66888,0,0,1-6.66308-.58984,32.6195,32.6195,0,0,1-7.42969-2.06348,17.8455,17.8455,0,0,1-5.95508-3.833,26.27345,26.27345,0,0,1-.35351-4.7168,39.8259,39.8259,0,0,1,.47168-5.95508,37.09205,37.09205,0,0,1,1.29687-5.71973h1.06152a19.65542,19.65542,0,0,0,1.53321,10.49512,14.84948,14.84948,0,0,0,6.19043,6.78125,16.862,16.862,0,0,0,9.25781,2.06348,17.60422,17.60422,0,0,0,11.14355-4.54q4.65675-4.18506,4.65821-11.26172a15.68724,15.68724,0,0,0-1.17969-6.19141,13.375,13.375,0,0,0-3.41895-4.77539l-22.64257-20.99121a18.42362,18.42362,0,0,1-4.95215-7.252,21.93816,21.93816,0,0,1-1.415-7.37109,20.65505,20.65505,0,0,1,2.3584-9.55176,18.8444,18.8444,0,0,1,7.0166-7.48828A21.19659,21.19659,0,0,1,726.99641,138.78145Zm14.74024,1.17872v2.47656h-8.96192v-2.47656Z" fill="#b2182a"/><polyline points="252.975 133.937 192.196 133.937 192.196 225.556" fill="none" stroke="#b2182a" stroke-linecap="round" stroke-miterlimit="10" stroke-width="4"/><circle cx="148.80326" cy="183.18388" r="7.1549" fill="none" stroke="#b2182a" stroke-linecap="round" stroke-linejoin="round" stroke-width="4"/><line x1="142.0492" y1="187.48483" x2="125.08986" y2="221.61593" fill="none" stroke="#b2182a" stroke-linecap="round" stroke-linejoin="round" stroke-width="4"/><line x1="155.46546" y1="187.02813" x2="172.46555" y2="221.56483" fill="none" stroke="#b2182a" stroke-linecap="round" stroke-linejoin="round" stroke-width="4"/><path d="M172.7627,222.02479a25.47351,25.47351,0,0,1-6.24138,10.19462,25.06438,25.06438,0,0,1-41.689-10.19462Z" fill="none" stroke="#b2182a" stroke-linecap="round" stroke-linejoin="round" stroke-width="4"/><line x1="148.64994" y1="190.92651" x2="148.64994" y2="221.51372" fill="none" stroke="#b2182a" stroke-linecap="round" stroke-linejoin="round" stroke-width="4"/><circle cx="297.41407" cy="183.18388" r="7.1549" fill="none" stroke="#b2182a" stroke-linecap="round" stroke-linejoin="round" stroke-width="4"/><line x1="290.66001" y1="187.48483" x2="273.70067" y2="221.61593" fill="none" stroke="#b2182a" stroke-linecap="round" stroke-linejoin="round" stroke-width="4"/><line x1="304.07627" y1="187.02813" x2="321.07636" y2="221.56483" fill="none" stroke="#b2182a" stroke-linecap="round" stroke-linejoin="round" stroke-width="4"/><path d="M321.37351,222.02479a25.47373,25.47373,0,0,1-6.24138,10.19462,25.06438,25.06438,0,0,1-41.689-10.19462Z" fill="none" stroke="#b2182a" stroke-linecap="round" stroke-linejoin="round" stroke-width="4"/><line x1="297.26075" y1="190.92651" x2="297.26075" y2="221.51372" fill="none" stroke="#b2182a" stroke-linecap="round" stroke-linejoin="round" stroke-width="4"/><line x1="157.47464" y1="183.15765" x2="288.97565" y2="183.15765" fill="none" stroke="#b2182a" stroke-linecap="round" stroke-linejoin="round" stroke-width="4"/><line x1="252.82146" y1="256.39658" x2="252.82146" y2="183.30064" fill="none" stroke="#b2182a" stroke-linecap="round" stroke-linejoin="round" stroke-width="4"/><path d="M252.8107,256.12093a30.4027,30.4027,0,0,1-60.8054,0" fill="none" stroke="#b2182a" stroke-linecap="round" stroke-linejoin="round" stroke-width="4"/><polyline points="147.81 159.311 147.81 88.8 296.929 88.8 296.929 159.311" fill="none" stroke="#b2182a" stroke-linecap="round" stroke-miterlimit="10" stroke-width="4"/><path d="M296.92926,256.39736V260.621a74.55961,74.55961,0,1,1-149.11921,0v-4.22367" fill="none" stroke="#b2182a" stroke-linecap="round" stroke-linejoin="round" stroke-width="4"/><path d="M377.81672,280.15645v6.12793h6.68067V288.257h-6.68067v6.31152h7.46973v1.97266h-9.8623V278.18478h9.8623v1.97167Z" fill="#b2182a"/><path d="M409.24446,282.5627a5.0376,5.0376,0,0,1,2.07715,2.09083,6.9788,6.9788,0,0,1,.76269,3.39257v8.49512h-2.36621v-8.15234a4.67191,4.67191,0,0,0-1.06543-3.30078,3.74416,3.74416,0,0,0-2.87988-1.14454,3.84713,3.84713,0,0,0-2.97168,1.19727,4.921,4.921,0,0,0-1.10449,3.458v7.94238h-2.36719v-8.15234a4.66739,4.66739,0,0,0-1.06543-3.30078,3.74343,3.74343,0,0,0-2.87891-1.14454,3.84928,3.84928,0,0,0-2.97265,1.19727,4.921,4.921,0,0,0-1.10449,3.458v7.94238h-2.39258V282.12911h2.39258v2.07813a4.73327,4.73327,0,0,1,1.90722-1.73633,5.77263,5.77263,0,0,1,2.64258-.60449,6.23489,6.23489,0,0,1,3.209.81543,4.97442,4.97442,0,0,1,2.07715,2.39257,4.72326,4.72326,0,0,1,1.999-2.36621,5.883,5.883,0,0,1,3.10351-.84179A6.31339,6.31339,0,0,1,409.24446,282.5627Z" fill="#b2182a"/><path d="M420.513,282.72091a6.32728,6.32728,0,0,1,3.27442-.82813,6.74759,6.74759,0,0,1,3.48437.91992,6.49176,6.49176,0,0,1,2.459,2.59083,8.0881,8.0881,0,0,1,.89453,3.8789,8.26457,8.26457,0,0,1-.89453,3.89258,6.55492,6.55492,0,0,1-5.94336,3.60254,6.275,6.275,0,0,1-3.248-.82813,5.91712,5.91712,0,0,1-2.14355-2.06445v9.49414h-2.39258v-21.25h2.39258v2.65625A5.71469,5.71469,0,0,1,420.513,282.72091Zm7.00879,3.72168a4.547,4.547,0,0,0-1.77539-1.84082,4.9128,4.9128,0,0,0-2.459-.63184,4.78449,4.78449,0,0,0-2.43262.64453,4.71139,4.71139,0,0,0-1.78809,1.86719,6.34785,6.34785,0,0,0,0,5.68066,4.71139,4.71139,0,0,0,1.78809,1.86719,4.78439,4.78439,0,0,0,2.43262.64453,4.83393,4.83393,0,0,0,2.459-.64453,4.624,4.624,0,0,0,1.77539-1.86719,5.99373,5.99373,0,0,0,.65723-2.87988A5.85623,5.85623,0,0,0,427.5218,286.44259Z" fill="#b2182a"/><path d="M437.9759,282.55a5.56645,5.56645,0,0,1,2.85352-.68359v2.47168h-.63086q-4.02393,0-4.02441,4.36621v7.83691h-2.39258V282.12911h2.39258v2.34082A4.59192,4.59192,0,0,1,437.9759,282.55Z" fill="#b2182a"/><path d="M456.66145,290.2297H445.1429a4.52982,4.52982,0,0,0,4.68066,4.52343,4.42728,4.42728,0,0,0,2.59082-.72363,3.82236,3.82236,0,0,0,1.459-1.93262h2.57813a6.1929,6.1929,0,0,1-2.31445,3.37891,6.98561,6.98561,0,0,1-4.31348,1.30176,7.29248,7.29248,0,0,1-3.66895-.91992,6.511,6.511,0,0,1-2.5371-2.61719,8.10847,8.10847,0,0,1-.9209-3.93164,8.22908,8.22908,0,0,1,.89453-3.91895A6.27185,6.27185,0,0,1,446.10286,282.8a7.46794,7.46794,0,0,1,3.7207-.90723,7.23947,7.23947,0,0,1,3.62988.89356,6.201,6.201,0,0,1,2.43262,2.459,7.26619,7.26619,0,0,1,.85449,3.53809A14.046,14.046,0,0,1,456.66145,290.2297Zm-2.998-4.29981a3.92914,3.92914,0,0,0-1.64355-1.499,5.11983,5.11983,0,0,0-2.30176-.51367,4.43648,4.43648,0,0,0-3.08984,1.15722,4.71748,4.71748,0,0,0-1.46,3.209h9.09961A4.41369,4.41369,0,0,0,453.6634,285.92989Z" fill="#b2182a"/><path d="M472.96711,290.2297H461.44856a4.52982,4.52982,0,0,0,4.68066,4.52343,4.42726,4.42726,0,0,0,2.59082-.72363,3.82233,3.82233,0,0,0,1.459-1.93262h2.57812a6.19285,6.19285,0,0,1-2.31445,3.37891,6.98559,6.98559,0,0,1-4.31348,1.30176,7.29244,7.29244,0,0,1-3.66894-.91992,6.511,6.511,0,0,1-2.53711-2.61719,8.10847,8.10847,0,0,1-.9209-3.93164,8.22908,8.22908,0,0,1,.89453-3.91895A6.27191,6.27191,0,0,1,462.40852,282.8a7.468,7.468,0,0,1,3.7207-.90723,7.23951,7.23951,0,0,1,3.62989.89356,6.20106,6.20106,0,0,1,2.43261,2.459,7.2662,7.2662,0,0,1,.8545,3.53809A14.04608,14.04608,0,0,1,472.96711,290.2297Zm-2.998-4.29981a3.92911,3.92911,0,0,0-1.64356-1.499,5.11982,5.11982,0,0,0-2.30175-.51367,4.4365,4.4365,0,0,0-3.08985,1.15722,4.71756,4.71756,0,0,0-1.46,3.209h9.09961A4.41369,4.41369,0,0,0,469.96907,285.92989Z" fill="#b2182a"/><path d="M487.48372,283.45724a6.1259,6.1259,0,0,1,1.63086,4.58886v8.49512h-2.36719v-8.15234a4.63532,4.63532,0,0,0-1.07813-3.30078,3.85565,3.85565,0,0,0-2.94629-1.14454,3.94435,3.94435,0,0,0-3.01074,1.1836,4.83564,4.83564,0,0,0-1.11816,3.44531v7.96875h-2.39258V282.12911h2.39258v2.05176a4.75565,4.75565,0,0,1,1.93359-1.71,5.99188,5.99188,0,0,1,2.69531-.60449A5.84405,5.84405,0,0,1,487.48372,283.45724Z" fill="#b2182a"/><path d="M493.03352,285.40353a6.48508,6.48508,0,0,1,2.459-2.59083,6.795,6.795,0,0,1,3.51074-.91992,6.5279,6.5279,0,0,1,3.12988.77539,5.6112,5.6112,0,0,1,2.209,2.03809v-7.62695h2.41895v19.46191h-2.41895v-2.709a5.59534,5.59534,0,0,1-2.10449,2.11718,6.25728,6.25728,0,0,1-3.26074.82813,6.55492,6.55492,0,0,1-5.94336-3.60254,8.26457,8.26457,0,0,1-.89453-3.89258A8.0881,8.0881,0,0,1,493.03352,285.40353Zm10.65039,1.06542a4.6369,4.6369,0,0,0-1.77441-1.85449,5.03214,5.03214,0,0,0-4.90528-.01269,4.56665,4.56665,0,0,0-1.76171,1.84082,5.85623,5.85623,0,0,0-.65723,2.83984,5.99373,5.99373,0,0,0,.65723,2.87988,4.645,4.645,0,0,0,1.76171,1.86719,4.76479,4.76479,0,0,0,2.44629.64453,4.83911,4.83911,0,0,0,2.459-.64453,4.61545,4.61545,0,0,0,1.77441-1.86719,5.933,5.933,0,0,0,.6582-2.85351A5.85651,5.85651,0,0,0,503.68391,286.469Z" fill="#b2182a"/><path d="M523.88215,290.2297H512.3636a4.52982,4.52982,0,0,0,4.68066,4.52343,4.42728,4.42728,0,0,0,2.59082-.72363,3.82238,3.82238,0,0,0,1.459-1.93262h2.57812a6.19285,6.19285,0,0,1-2.31445,3.37891,6.98559,6.98559,0,0,1-4.31348,1.30176,7.29244,7.29244,0,0,1-3.66894-.91992,6.511,6.511,0,0,1-2.53711-2.61719,8.10847,8.10847,0,0,1-.9209-3.93164,8.22908,8.22908,0,0,1,.89453-3.91895A6.27185,6.27185,0,0,1,513.32356,282.8a7.468,7.468,0,0,1,3.7207-.90723,7.23951,7.23951,0,0,1,3.62989.89356,6.20106,6.20106,0,0,1,2.43261,2.459,7.2662,7.2662,0,0,1,.8545,3.53809A14.04608,14.04608,0,0,1,523.88215,290.2297Zm-2.998-4.29981a3.92911,3.92911,0,0,0-1.64356-1.499,5.11983,5.11983,0,0,0-2.30176-.51367,4.43649,4.43649,0,0,0-3.08984,1.15722,4.71752,4.71752,0,0,0-1.46,3.209h9.09961A4.41369,4.41369,0,0,0,520.88411,285.92989Z" fill="#b2182a"/><path d="M527.11751,285.40353a6.48505,6.48505,0,0,1,2.459-2.59083,6.795,6.795,0,0,1,3.51074-.91992,6.5279,6.5279,0,0,1,3.12988.77539,5.6113,5.6113,0,0,1,2.209,2.03809v-7.62695H540.845v19.46191H538.4261v-2.709a5.59541,5.59541,0,0,1-2.10449,2.11718,6.25734,6.25734,0,0,1-3.26075.82813,6.55489,6.55489,0,0,1-5.94335-3.60254,8.26457,8.26457,0,0,1-.89454-3.89258A8.0881,8.0881,0,0,1,527.11751,285.40353ZM537.7679,286.469a4.63686,4.63686,0,0,0-1.77442-1.85449,5.03212,5.03212,0,0,0-4.90527-.01269,4.5666,4.5666,0,0,0-1.76172,1.84082,5.85623,5.85623,0,0,0-.65723,2.83984,5.99373,5.99373,0,0,0,.65723,2.87988,4.645,4.645,0,0,0,1.76172,1.86719,4.76479,4.76479,0,0,0,2.44629.64453,4.83907,4.83907,0,0,0,2.459-.64453,4.61541,4.61541,0,0,0,1.77442-1.86719,5.9331,5.9331,0,0,0,.6582-2.85351A5.85662,5.85662,0,0,0,537.7679,286.469Z" fill="#b2182a"/><path d="M547.51106,295.85763a6.54971,6.54971,0,0,1-2.57715-2.61719,8.02633,8.02633,0,0,1-.93359-3.93164,7.78444,7.78444,0,0,1,.96-3.90527A6.605,6.605,0,0,1,547.57747,282.8a8.03124,8.03124,0,0,1,7.416,0,6.64616,6.64616,0,0,1,2.61719,2.58984,7.77986,7.77986,0,0,1,.96,3.91895,7.68218,7.68218,0,0,1-.98633,3.93164,6.84052,6.84052,0,0,1-2.66992,2.61719,7.65824,7.65824,0,0,1-3.73437.91992A7.38107,7.38107,0,0,1,547.51106,295.85763Zm6.08887-1.78809a4.61028,4.61028,0,0,0,1.82715-1.81543,5.80694,5.80694,0,0,0,.69726-2.94531,5.90987,5.90987,0,0,0-.68359-2.94531,4.47873,4.47873,0,0,0-1.78809-1.80176,5.162,5.162,0,0,0-4.7998,0,4.32856,4.32856,0,0,0-1.749,1.80176,6.09208,6.09208,0,0,0-.65722,2.94531,6.25388,6.25388,0,0,0,.64355,2.97168,4.28438,4.28438,0,0,0,1.72266,1.80176,4.8383,4.8383,0,0,0,2.36719.59179A5.05863,5.05863,0,0,0,553.59993,294.06954Z" fill="#b2182a"/><path d="M565.92122,282.55a5.56639,5.56639,0,0,1,2.85351-.68359v2.47168h-.63086q-4.02391,0-4.02441,4.36621v7.83691h-2.39258V282.12911h2.39258v2.34082A4.59194,4.59194,0,0,1,565.92122,282.55Z" fill="#b2182a"/><path d="M571.61458,279.31563a1.63087,1.63087,0,0,1,1.15722-2.78808,1.49833,1.49833,0,0,1,1.11817.47363,1.68573,1.68573,0,0,1,0,2.31445,1.501,1.501,0,0,1-1.11817.47266A1.57513,1.57513,0,0,1,571.61458,279.31563Zm2.31445,2.81348v14.41211h-2.39258V282.12911Z" fill="#b2182a"/><path d="M580.13508,296.21212a4.99726,4.99726,0,0,1-2.07714-1.57715,4.19823,4.19823,0,0,1-.8418-2.32812h2.47168a2.4281,2.4281,0,0,0,1.01269,1.76269,3.85132,3.85132,0,0,0,2.37989.68359,3.45876,3.45876,0,0,0,2.15722-.60546,1.84708,1.84708,0,0,0,.78809-1.52539,1.50339,1.50339,0,0,0-.84082-1.40625,11.86687,11.86687,0,0,0-2.60352-.90821,19.09666,19.09666,0,0,1-2.61718-.85449,4.63873,4.63873,0,0,1-1.73536-1.28809,3.36323,3.36323,0,0,1-.72363-2.249,3.40868,3.40868,0,0,1,.65723-2.02539,4.45819,4.45819,0,0,1,1.86718-1.459,6.71951,6.71951,0,0,1,2.76172-.53907,5.89712,5.89712,0,0,1,3.86621,1.21,4.361,4.361,0,0,1,1.57813,3.31348h-2.39356a2.475,2.475,0,0,0-.90722-1.81445,3.38329,3.38329,0,0,0-2.22266-.68457,3.42446,3.42446,0,0,0-2.05078.55273,1.70617,1.70617,0,0,0-.76269,1.44629,1.58282,1.58282,0,0,0,.46,1.16992,3.35541,3.35541,0,0,0,1.15722.73731,19.90711,19.90711,0,0,0,1.93262.61718,21.05575,21.05575,0,0,1,2.52539.82911,4.42093,4.42093,0,0,1,1.66992,1.22265,3.27522,3.27522,0,0,1,.72266,2.12989,3.649,3.649,0,0,1-.65723,2.13085,4.38,4.38,0,0,1-1.85449,1.48536,6.62828,6.62828,0,0,1-2.74805.53906A7.45539,7.45539,0,0,1,580.13508,296.21212Z" fill="#b2182a"/><path d="M612.06282,282.5627a5.03765,5.03765,0,0,1,2.07715,2.09083,6.9788,6.9788,0,0,1,.76269,3.39257v8.49512h-2.36621v-8.15234a4.67191,4.67191,0,0,0-1.06543-3.30078,3.74416,3.74416,0,0,0-2.87988-1.14454,3.84713,3.84713,0,0,0-2.97168,1.19727,4.921,4.921,0,0,0-1.10449,3.458v7.94238h-2.36719v-8.15234a4.66739,4.66739,0,0,0-1.06543-3.30078,3.74343,3.74343,0,0,0-2.87891-1.14454,3.84927,3.84927,0,0,0-2.97265,1.19727,4.921,4.921,0,0,0-1.1045,3.458v7.94238h-2.39257V282.12911h2.39257v2.07813a4.73336,4.73336,0,0,1,1.90723-1.73633,5.77263,5.77263,0,0,1,2.64258-.60449,6.23489,6.23489,0,0,1,3.209.81543,4.97447,4.97447,0,0,1,2.07715,2.39257,4.72326,4.72326,0,0,1,1.999-2.36621,5.883,5.883,0,0,1,3.10351-.84179A6.31342,6.31342,0,0,1,612.06282,282.5627Z" fill="#b2182a"/><path d="M621.43782,295.85763a6.54965,6.54965,0,0,1-2.57715-2.61719,8.02633,8.02633,0,0,1-.93359-3.93164,7.78444,7.78444,0,0,1,.96-3.90527A6.605,6.605,0,0,1,621.50422,282.8a8.03126,8.03126,0,0,1,7.416,0,6.64616,6.64616,0,0,1,2.61719,2.58984,7.77986,7.77986,0,0,1,.96,3.91895,7.68218,7.68218,0,0,1-.98633,3.93164,6.84052,6.84052,0,0,1-2.66992,2.61719,7.65825,7.65825,0,0,1-3.73438.91992A7.38106,7.38106,0,0,1,621.43782,295.85763Zm6.08887-1.78809a4.61026,4.61026,0,0,0,1.82714-1.81543,5.80684,5.80684,0,0,0,.69727-2.94531,5.91,5.91,0,0,0-.68359-2.94531,4.47873,4.47873,0,0,0-1.78809-1.80176,5.162,5.162,0,0,0-4.79981,0,4.32859,4.32859,0,0,0-1.749,1.80176,6.092,6.092,0,0,0-.65723,2.94531,6.25388,6.25388,0,0,0,.64356,2.97168,4.28438,4.28438,0,0,0,1.72266,1.80176,4.83828,4.83828,0,0,0,2.36718.59179A5.05864,5.05864,0,0,0,627.52669,294.06954Z" fill="#b2182a"/><path d="M651.90559,278.21017v13.54492a4.81342,4.81342,0,0,1-1.39355,3.61621,5.10812,5.10812,0,0,1-8.78418-3.80078h2.39355a3.50818,3.50818,0,0,0,.69629,2.18261,2.85814,2.85814,0,0,0,4.01074.04,3.1092,3.1092,0,0,0,.65821-2.03808V278.21017Z" fill="#b2182a"/><path d="M669.39485,282.12911v14.41211h-2.39356v-2.12988A4.65929,4.65929,0,0,1,665.095,296.134a5.90213,5.90213,0,0,1-2.69628.61719,6.45923,6.45923,0,0,1-3.02442-.69629,5.0713,5.0713,0,0,1-2.11719-2.09082,6.89241,6.89241,0,0,1-.77539-3.39258v-8.44238h2.36719v8.12695a4.59255,4.59255,0,0,0,1.07813,3.27344,3.852,3.852,0,0,0,2.94531,1.14453,3.936,3.936,0,0,0,3.02441-1.18359,4.87233,4.87233,0,0,0,1.10449-3.44531v-7.916Z" fill="#b2182a"/><path d="M677.639,282.55a5.56643,5.56643,0,0,1,2.85352-.68359v2.47168h-.63086q-4.02393,0-4.02442,4.36621v7.83691h-2.39258V282.12911h2.39258v2.34082A4.592,4.592,0,0,1,677.639,282.55Z" fill="#b2182a"/><path d="M687.015,278.05294,681.4134,281.051V279.2629l5.60157-3.28809Zm-1.36817,4.07617v14.41211h-2.39258V282.12911Z" fill="#b2182a"/><path d="M689.72395,285.40353a6.48508,6.48508,0,0,1,2.459-2.59083,6.795,6.795,0,0,1,3.51074-.91992,6.5279,6.5279,0,0,1,3.12988.77539,5.6112,5.6112,0,0,1,2.209,2.03809v-7.62695h2.41895v19.46191h-2.41895v-2.709a5.59534,5.59534,0,0,1-2.10449,2.11718,6.2573,6.2573,0,0,1-3.26074.82813,6.55492,6.55492,0,0,1-5.94336-3.60254,8.26457,8.26457,0,0,1-.89453-3.89258A8.0881,8.0881,0,0,1,689.72395,285.40353Zm10.65039,1.06542a4.6369,4.6369,0,0,0-1.77441-1.85449,5.03214,5.03214,0,0,0-4.90528-.01269,4.56665,4.56665,0,0,0-1.76171,1.84082,5.85623,5.85623,0,0,0-.65723,2.83984,5.99373,5.99373,0,0,0,.65723,2.87988,4.645,4.645,0,0,0,1.76171,1.86719,4.76479,4.76479,0,0,0,2.44629.64453,4.83911,4.83911,0,0,0,2.459-.64453,4.61545,4.61545,0,0,0,1.77441-1.86719,5.933,5.933,0,0,0,.6582-2.85351A5.85651,5.85651,0,0,0,700.37434,286.469Z" fill="#b2182a"/><path d="M707.5804,279.31563a1.63087,1.63087,0,0,1,1.15722-2.78808,1.49833,1.49833,0,0,1,1.11817.47363,1.68573,1.68573,0,0,1,0,2.31445,1.501,1.501,0,0,1-1.11817.47266A1.57513,1.57513,0,0,1,707.5804,279.31563Zm2.31445,2.81348v14.41211h-2.39258V282.12911Z" fill="#b2182a"/><path d="M713.971,285.40353a6.43076,6.43076,0,0,1,2.48535-2.59083,7.89362,7.89362,0,0,1,8.02051.36817,6.08467,6.08467,0,0,1,2.27539,3.57715h-2.57715a3.70591,3.70591,0,0,0-1.43359-2.07813,4.4272,4.4272,0,0,0-2.64356-.76269,4.2418,4.2418,0,0,0-3.31347,1.40722,5.76475,5.76475,0,0,0-1.26172,3.98438,5.85326,5.85326,0,0,0,1.26172,4.02344,4.22064,4.22064,0,0,0,3.31347,1.42089,4.47685,4.47685,0,0,0,2.63086-.73632,3.743,3.743,0,0,0,1.44629-2.1045h2.57715a6.3368,6.3368,0,0,1-2.31445,3.53711,6.93048,6.93048,0,0,1-4.33985,1.32813,7.14151,7.14151,0,0,1-3.6416-.91992,6.40288,6.40288,0,0,1-2.48535-2.60352,8.28507,8.28507,0,0,1-.89453-3.94531A8.14617,8.14617,0,0,1,713.971,285.40353Z" fill="#b2182a"/><path d="M732.5511,295.85763a6.54971,6.54971,0,0,1-2.57715-2.61719,8.02633,8.02633,0,0,1-.93359-3.93164,7.78444,7.78444,0,0,1,.96-3.90527A6.605,6.605,0,0,1,732.61751,282.8a8.03124,8.03124,0,0,1,7.416,0,6.64616,6.64616,0,0,1,2.61719,2.58984,7.77986,7.77986,0,0,1,.96,3.91895,7.68218,7.68218,0,0,1-.98633,3.93164,6.84052,6.84052,0,0,1-2.66992,2.61719,7.65825,7.65825,0,0,1-3.73438.91992A7.38106,7.38106,0,0,1,732.5511,295.85763Zm6.08887-1.78809a4.6102,4.6102,0,0,0,1.82714-1.81543,5.80684,5.80684,0,0,0,.69727-2.94531,5.91,5.91,0,0,0-.68359-2.94531,4.47873,4.47873,0,0,0-1.78809-1.80176,5.162,5.162,0,0,0-4.7998,0,4.32856,4.32856,0,0,0-1.749,1.80176,6.09208,6.09208,0,0,0-.65722,2.94531,6.25388,6.25388,0,0,0,.64355,2.97168,4.28438,4.28438,0,0,0,1.72266,1.80176,4.83828,4.83828,0,0,0,2.36718.59179A5.05864,5.05864,0,0,0,738.64,294.06954Z" fill="#b2182a"/></svg>